<?xml version="1.0" encoding="iso-8859-1"?>
<!-- Generator: Adobe Illustrator 19.0.0, SVG Export Plug-In . SVG Version: 6.00 Build 0)  -->
<svg version="1.1" id="Capa_1" xmlns="http://www.w3.org/2000/svg" xmlns:xlink="http://www.w3.org/1999/xlink" x="0px" y="0px"
	 viewBox="0 0 512 512" style="enable-background:new 0 0 512 512;" xml:space="preserve">
<g>
	<g>
		<path d="M30,90v182h150V90H30z M150,195c0,8.291-6.709,15-15,15H75c-8.291,0-15-6.709-15-15v-30c0-24.814,20.186-45,45-45
			c24.814,0,45,20.186,45,45V195z"/>
	</g>
</g>
<g>
	<g>
		<path d="M105,150c-8.276,0-15,6.724-15,15v15h30v-15C120,156.724,113.276,150,105,150z"/>
	</g>
</g>
<g>
	<g>
		<path d="M406,150H210v122h271v-46C481,184.647,447.353,150,406,150z M301,226c0,8.291-6.709,15-15,15c-8.291,0-15-6.709-15-15v-31
			c0-8.291,6.709-15,15-15c8.291,0,15,6.709,15,15V226z M361,226c0,8.291-6.709,15-15,15c-8.291,0-15-6.709-15-15v-31
			c0-8.291,6.709-15,15-15c8.291,0,15,6.709,15,15V226z M421,226c0,8.291-6.709,15-15,15c-8.291,0-15-6.709-15-15v-31
			c0-8.291,6.709-15,15-15c8.291,0,15,6.709,15,15V226z"/>
	</g>
</g>
<g>
	<g>
		<path d="M180,0H30C13.431,0,0,13.431,0,30c0,16.567,13.431,30,30,30h150c16.569,0,30-13.433,30-30C210,13.431,196.569,0,180,0z"/>
	</g>
</g>
<g>
	<g>
		<path d="M120,452c0-8.401,6.599-15,15-15h27.9c-2.401-10.501-8.101-19.801-15.601-27.301C136.5,398.599,121.5,392,105,392
			s-31.5,6.599-42.299,17.699c-7.5,7.5-13.2,16.8-15.601,27.301H75c8.401,0,15,6.599,15,15c0,8.399-6.599,15-15,15H47.1
			c6.599,25.8,30,45,57.9,45c16.5,0,31.5-6.601,42.299-17.701c7.5-7.5,13.2-16.8,15.601-27.299H135C126.599,467,120,460.399,120,452
			z"/>
	</g>
</g>
<g>
	<g>
		<path d="M271,452c0-8.401,6.599-15,15-15h27.9c-2.401-10.501-8.101-19.801-15.601-27.301C287.5,398.599,272.5,392,256,392
			s-32.5,6.599-43.299,17.699c-7.5,7.5-13.2,16.8-15.601,27.301H225c8.401,0,15,6.599,15,15c0,8.399-6.599,15-15,15h-27.9
			c6.599,25.8,31,45,58.9,45c16.5,0,31.5-6.601,42.299-17.701c7.5-7.5,13.2-16.8,15.601-27.299H286C277.599,467,271,460.399,271,452
			z"/>
	</g>
</g>
<g>
	<g>
		<path d="M421,452c0-8.401,6.599-15,15-15h27.9c-2.401-10.501-8.101-19.801-15.601-27.301C437.5,398.599,422.5,392,406,392
			s-31.5,6.599-42.299,17.699c-7.5,7.5-13.2,16.8-15.601,27.301H376c8.401,0,15,6.599,15,15c0,8.399-6.599,15-15,15h-27.9
			c6.599,25.8,30,45,57.9,45c16.5,0,31.5-6.601,42.299-17.701c7.5-7.5,13.2-16.8,15.601-27.299H436C427.599,467,421,460.399,421,452
			z"/>
	</g>
</g>
<g>
	<g>
		<path d="M466,302H45c-24.853,0-45,20.147-45,45v60c0,13.757,6.335,25.935,16.091,34.197C21.502,396.702,59.07,362,105,362
			c31.309,0,58.872,16.108,75,40.432C196.128,378.108,224.691,362,256,362s58.872,16.108,75,40.432
			C347.128,378.108,374.691,362,406,362c49.629,0,90,40.371,90,90c8.291,0,16-6.709,16-15v-90C512,322.147,490.853,302,466,302z"/>
	</g>
</g>
<g>
	<g>
		<path d="M405.98,0h-89.96c-11.151,0-18.404,11.733-13.418,21.707L331,60h60l28.398-38.293C424.384,11.733,417.131,0,405.98,0z"/>
	</g>
</g>
<g>
	<g>
		<rect x="331" y="90" width="60" height="30"/>
	</g>
</g>
<g>
</g>
<g>
</g>
<g>
</g>
<g>
</g>
<g>
</g>
<g>
</g>
<g>
</g>
<g>
</g>
<g>
</g>
<g>
</g>
<g>
</g>
<g>
</g>
<g>
</g>
<g>
</g>
<g>
</g>
</svg>
